# xmcd CD database file
#
# Track frame offsets:
#	150
#	13045
#	33997
#	49350
#	60912
#	74365
#	85495
#	104355
#	118212
#	134087
#	150672
#	164065
#
# Disc length: 2385 seconds
#
# Revision: 1
# Processed by: cddbd v1.5.1PL0 Copyright (c) Steve Scherf et al.
# Submitted via: CDex 1.51
#
DISCID=ac094f0c
DTITLE=George Shearing - I'll Take Romance [CD1]
DYEAR=1900
DGENRE=Jazz
TTITLE0=September In The Rain
TTITLE1=Little White Lies
TTITLE2=Perfidia
TTITLE3=Roses Of Picardy
TTITLE4=Mambo Caribe
TTITLE5=Cuban Fantasy
TTITLE6=Lullaby Of Birdland
TTITLE7=I'll Remeber April
TTITLE8=That Old Devil Moon
TTITLE9=Jumpin' With Symphony Sid
TTITLE10=You Don't Know What Love Is
TTITLE11=Watch Your Step
EXTD=
EXTT0=
EXTT1=
EXTT2=
EXTT3=
EXTT4=
EXTT5=
EXTT6=
EXTT7=
EXTT8=
EXTT9=
EXTT10=
EXTT11=
PLAYORDER=
